<?xml version="1.0" encoding="UTF-8" standalone="no"?>
<!-- Created with Inkscape (http://www.inkscape.org/) -->

<svg
   xmlns:dc="http://purl.org/dc/elements/1.1/"
   xmlns:cc="http://creativecommons.org/ns#"
   xmlns:rdf="http://www.w3.org/1999/02/22-rdf-syntax-ns#"
   xmlns:svg="http://www.w3.org/2000/svg"
   xmlns="http://www.w3.org/2000/svg"
   xmlns:sodipodi="http://sodipodi.sourceforge.net/DTD/sodipodi-0.dtd"
   xmlns:inkscape="http://www.inkscape.org/namespaces/inkscape"
   width="300mm"
   height="300mm"
   viewBox="0 0 300 300"
   version="1.1"
   id="svg8"
   inkscape:version="0.92.4 5da689c313, 2019-01-14"
   sodipodi:docname="logo.svg">
  <defs
     id="defs2" />
  <sodipodi:namedview
     id="base"
     pagecolor="#ffffff"
     bordercolor="#666666"
     borderopacity="1.0"
     inkscape:pageopacity="0.0"
     inkscape:pageshadow="2"
     inkscape:zoom="0.24748737"
     inkscape:cx="-412.90759"
     inkscape:cy="427.30375"
     inkscape:document-units="mm"
     inkscape:current-layer="g850"
     showgrid="false"
     inkscape:window-width="1920"
     inkscape:window-height="1024"
     inkscape:window-x="0"
     inkscape:window-y="0"
     inkscape:window-maximized="1" />
  <metadata
     id="metadata5">
    <rdf:RDF>
      <cc:Work
         rdf:about="">
        <dc:format>image/svg+xml</dc:format>
        <dc:type
           rdf:resource="http://purl.org/dc/dcmitype/StillImage" />
        <dc:title></dc:title>
      </cc:Work>
    </rdf:RDF>
  </metadata>
  <g
     inkscape:label="Layer 1"
     inkscape:groupmode="layer"
     id="layer1"
     transform="translate(0,3)">
    <g
       id="g850"
       transform="matrix(0.26458333,0,0,0.26458333,26.427335,3.441769)">
      <g
         id="g819"
         display="none"
         style="display:none">
	<path
   id="path815"
   display="inline"
   d="m 297.85,349.1 c 0,6.256 -4.941,11.327 -11.035,11.327 h -177.93 c -6.095,0 -11.035,-5.071 -11.035,-11.327 V 171.76 c 0,-6.257 4.94,-11.328 11.035,-11.328 h 177.93 c 6.094,0 11.035,5.071 11.035,11.328 z"
   inkscape:connector-curvature="0"
   style="display:inline;fill:#90a4ae" />

	<path
   id="path817"
   display="inline"
   d="m 197.85,160.43 h -88.965 c -6.095,0 -11.035,5.071 -11.035,11.328 v 177.34 c 0,6.256 4.94,11.327 11.035,11.327 h 88.965 v -200 z"
   inkscape:connector-curvature="0"
   style="display:inline;fill:#78909c" />

</g>
      <g
         id="g858"
         transform="matrix(1.5692615,0,0,1.5692615,-4.7058082,-328.29558)">
        <circle
           inkscape:export-ydpi="511.99979"
           inkscape:export-xdpi="511.99979"
           style="fill:#333333;fill-opacity:1;stroke-width:2.34233546"
           cx="300.62045"
           cy="554.96033"
           r="351.35034"
           id="circle821" />
        <path
           inkscape:export-ydpi="511.99979"
           inkscape:export-xdpi="511.99979"
           style="fill:#424242;fill-opacity:1;stroke-width:2.34233546"
           inkscape:connector-curvature="0"
           d="M 301.93217,203.63334 V 906.31061 C 495.37864,905.60791 651.9708,748.58943 651.9708,554.98369 651.9708,361.37324 495.36693,204.35947 301.93217,203.65676 Z"
           id="path823" />
        <path
           inkscape:export-ydpi="511.99979"
           inkscape:export-xdpi="511.99979"
           style="fill:#ffffff;stroke-width:2.34233546"
           inkscape:connector-curvature="0"
           d="m 162.21185,460.14252 c 0,-17.89545 5.7434,-36.02981 17.23725,-54.39607 11.48681,-18.3686 28.25793,-33.57972 50.30165,-45.63806 22.04138,-12.05366 47.75789,-18.08752 77.14717,-18.08752 27.31163,0 51.43066,5.04304 72.34303,15.11977 20.91004,10.08142 37.06044,23.78643 48.46293,41.11736 11.39546,17.33563 17.09436,36.17035 17.09436,56.51588 0,16.01455 -3.24881,30.05216 -9.74646,42.10582 -6.49997,12.05835 -14.22969,22.46535 -23.17506,31.22568 -8.95007,8.76033 -25.01147,23.50534 -48.18185,44.2233 -6.40395,5.84413 -11.54069,10.97852 -15.40085,15.40086 -3.86017,4.42936 -6.73422,8.4769 -8.61746,12.15204 -1.88753,3.67043 -3.34954,7.3479 -4.38016,11.01834 -1.03844,3.67512 -2.59297,10.12826 -4.66359,19.3594 -3.57909,19.59364 -14.78717,29.38929 -33.62424,29.38929 -9.80032,0 -18.043,-3.20197 -24.72803,-9.60826 -6.68971,-6.40161 -10.03223,-15.91852 -10.03223,-28.54371 0,-15.82481 2.4454,-29.52982 7.34791,-41.11736 4.89549,-11.58519 11.39547,-21.76029 19.49761,-30.51828 8.09979,-8.76034 19.02679,-19.16734 32.78098,-31.22568 12.05366,-10.54754 20.7695,-18.50914 26.14046,-23.87777 5.3663,-5.36863 9.88935,-11.34862 13.56213,-17.94463 3.67279,-6.59133 5.51151,-13.74951 5.51151,-21.47453 0,-15.07059 -5.60755,-27.78713 -16.81328,-38.14963 -11.21276,-10.35781 -25.67199,-15.54139 -43.37771,-15.54139 -20.72733,0 -35.98765,5.22809 -45.78095,15.68427 -9.79799,10.45386 -18.08517,25.85705 -24.86858,46.20258 -6.40628,21.29182 -18.55832,31.93072 -36.45377,31.93072 -10.55222,0 -19.45309,-3.71729 -26.70497,-11.16123 -7.25421,-7.43692 -10.8778,-15.49221 -10.8778,-24.16119 z m 137.90266,309.70362 c -11.4915,0 -21.52606,-3.72198 -30.09432,-11.16358 -8.57529,-7.4416 -12.85709,-17.84392 -12.85709,-31.22568 0,-11.86627 4.14126,-21.85165 12.43312,-29.95379 8.28718,-8.09744 18.45995,-12.15204 30.51829,-12.15204 11.86862,0 21.85166,4.05225 29.95614,12.15204 8.09745,8.10214 12.15203,18.08752 12.15203,29.95379 0,13.19204 -4.24197,23.55219 -12.71653,31.08514 -8.47927,7.53295 -18.27959,11.30412 -29.39164,11.30412 z"
           id="path825" />
        <g
           transform="matrix(2.3423356,0,0,2.3423356,-395.66223,-431.0225)"
           inkscape:export-ydpi="511.99979"
           inkscape:export-xdpi="511.99979"
           style="fill:#dfdfdf;fill-opacity:1"
           id="g831">
		<path
   style="fill:#dfdfdf;fill-opacity:1"
   inkscape:connector-curvature="0"
   d="m 330.82,336.49 c -8.928,-4.302 -19.225,-6.455 -30.885,-6.455 -0.713,0 -1.418,0.011 -2.121,0.027 v 25.498 c 0.699,-0.031 1.39,-0.069 2.121,-0.069 7.559,0 13.731,2.213 18.519,6.635 4.784,4.424 7.178,9.854 7.178,16.287 0,3.298 -0.784,6.354 -2.353,9.168 -1.568,2.816 -3.499,5.369 -5.79,7.661 -2.293,2.292 -6.014,5.691 -11.16,10.194 -3.201,2.807 -6.03,5.396 -8.514,7.783 v 52.302 c 6.773,-0.69 10.864,-4.825 12.253,-12.431 0.884,-3.94 1.548,-6.695 1.991,-8.265 0.44,-1.567 1.064,-3.137 1.87,-4.704 0.804,-1.569 2.03,-3.298 3.679,-5.188 1.648,-1.889 3.841,-4.08 6.575,-6.575 9.893,-8.846 16.749,-15.141 20.57,-18.88 3.818,-3.74 7.118,-8.183 9.894,-13.331 2.774,-5.146 4.161,-11.139 4.161,-17.976 0,-8.687 -2.433,-16.728 -7.298,-24.128 -4.867,-7.398 -11.763,-13.25 -20.69,-17.553 z"
   id="path827" />

		<path
   style="fill:#dfdfdf;fill-opacity:1"
   inkscape:connector-curvature="0"
   d="m 315.02,494.59 c 0,-5.066 -1.73,-9.329 -5.188,-12.788 -3.28,-3.277 -7.289,-4.983 -12.013,-5.153 v 36.005 c 4.423,-0.168 8.353,-1.755 11.772,-4.792 3.618,-3.218 5.429,-7.64 5.429,-13.272 z"
   id="path829" />

	</g>
      </g>
    </g>
  </g>
</svg>
